// Generation Options: --volume 10 --release 0.5

<group>
sw_default=48
sw_lokey=48
sw_hikey=51
sw_last=48
sw_label=Vibrato
ampeg_attack=0.004000
ampeg_release=0.500000

<region>
sample=Saxello/Vibrato/BrettSaxello_SusVB_MainSpirit_A#2_vl2_rr1.wav
pitch_keycenter=58
lokey=58
hikey=60
volume=9.133215

<region>
sample=Saxello/Vibrato/BrettSaxello_SusVB_MainSpirit_D3_vl2_rr1.wav
pitch_keycenter=62
lokey=61
hikey=64
tune=1
volume=9.325023

<region>
sample=Saxello/Vibrato/BrettSaxello_SusVB_MainSpirit_F#3_vl2_rr1.wav
pitch_keycenter=66
lokey=65
hikey=68
tune=1
volume=11.116350

<region>
sample=Saxello/Vibrato/BrettSaxello_SusVB_MainSpirit_A#3_vl2_rr1.wav
pitch_keycenter=70
lokey=69
hikey=72
volume=15.558017

<region>
sample=Saxello/Vibrato/BrettSaxello_SusVB_MainSpirit_D4_vl2_rr1.wav
pitch_keycenter=74
lokey=73
hikey=76
tune=2
volume=7.284307

<region>
sample=Saxello/Vibrato/BrettSaxello_SusVB_MainSpirit_F#4_vl2_rr1.wav
pitch_keycenter=78
lokey=77
hikey=80
volume=7.695181

<region>
sample=Saxello/Vibrato/BrettSaxello_SusVB_MainSpirit_A#4_vl2_rr1.wav
pitch_keycenter=82
lokey=81
hikey=84
tune=2
volume=11.351061

<region>
sample=Saxello/Vibrato/BrettSaxello_SusVB_MainSpirit_D#5_vl2_rr1.wav
pitch_keycenter=87
lokey=85
hikey=88
tune=5
volume=11.237326



// Generation Options: --volume 10 --release 0.5

<group>
sw_default=48
sw_lokey=48
sw_hikey=51
sw_last=49
sw_label=Non-Vibrato
ampeg_attack=0.004000
ampeg_release=0.500000

<region>
lovel=0
hivel=83
sample=Saxello/Non-Vibrato/BrettSaxello_SusNV_MainSpirit_A#2_vl2_rr2.wav
pitch_keycenter=58
lokey=58
hikey=60
tune=-1
volume=10.326551

<region>
lovel=84
hivel=127
sample=Saxello/Non-Vibrato/BrettSaxello_SusNV_MainSpirit_A#2_vl3_rr1.wav
pitch_keycenter=58
lokey=58
hikey=60
tune=1
volume=7.354115

<region>
lovel=0
hivel=83
sample=Saxello/Non-Vibrato/BrettSaxello_SusNV_MainSpirit_D3_vl2_rr2.wav
pitch_keycenter=62
lokey=61
hikey=64
tune=1
volume=9.757663

<region>
lovel=84
hivel=127
sample=Saxello/Non-Vibrato/BrettSaxello_SusNV_MainSpirit_D3_vl3_rr1.wav
pitch_keycenter=62
lokey=61
hikey=64
tune=3
volume=10.346102

<region>
lovel=0
hivel=83
sample=Saxello/Non-Vibrato/BrettSaxello_SusNV_MainSpirit_F#3_vl2_rr2.wav
pitch_keycenter=66
lokey=65
hikey=68
volume=10.992029

<region>
lovel=84
hivel=127
sample=Saxello/Non-Vibrato/BrettSaxello_SusNV_MainSpirit_F#3_vl3_rr1.wav
pitch_keycenter=66
lokey=65
hikey=68
tune=1
volume=10.099201

<region>
lovel=0
hivel=83
sample=Saxello/Non-Vibrato/BrettSaxello_SusNV_MainSpirit_A#3_vl2_rr2.wav
pitch_keycenter=70
lokey=69
hikey=72
volume=18.051705

<region>
lovel=84
hivel=127
sample=Saxello/Non-Vibrato/BrettSaxello_SusNV_MainSpirit_A#3_vl3_rr1.wav
pitch_keycenter=70
lokey=69
hikey=72
tune=1
volume=8.843655

<region>
lovel=0
hivel=83
sample=Saxello/Non-Vibrato/BrettSaxello_SusNV_MainSpirit_D4_vl2_rr2.wav
pitch_keycenter=74
lokey=73
hikey=76
volume=11.968981

<region>
lovel=84
hivel=127
sample=Saxello/Non-Vibrato/BrettSaxello_SusNV_MainSpirit_D4_vl3_rr1.wav
pitch_keycenter=74
lokey=73
hikey=76
volume=4.576767

<region>
lovel=0
hivel=83
sample=Saxello/Non-Vibrato/BrettSaxello_SusNV_MainSpirit_F#4_vl2_rr2.wav
pitch_keycenter=78
lokey=77
hikey=80
volume=16.983600

<region>
lovel=84
hivel=127
sample=Saxello/Non-Vibrato/BrettSaxello_SusNV_MainSpirit_F#4_vl3_rr1.wav
pitch_keycenter=78
lokey=77
hikey=80
volume=8.689288

<region>
lovel=0
hivel=83
sample=Saxello/Non-Vibrato/BrettSaxello_SusNV_MainSpirit_A#4_vl2_rr2.wav
pitch_keycenter=82
lokey=81
hikey=85
volume=19.137697

<region>
lovel=84
hivel=127
sample=Saxello/Non-Vibrato/BrettSaxello_SusNV_MainSpirit_A#4_vl3_rr1.wav
pitch_keycenter=82
lokey=81
hikey=85
volume=6.824052

<region>
lovel=0
hivel=83
sample=Saxello/Non-Vibrato/BrettSaxello_SusNV_MainSpirit_E5_vl2_rr2.wav
pitch_keycenter=88
lokey=86
hikey=89
tune=1
volume=10.851855

<region>
lovel=84
hivel=127
sample=Saxello/Non-Vibrato/BrettSaxello_SusNV_MainSpirit_E5_vl3_rr1.wav
pitch_keycenter=88
lokey=86
hikey=89
volume=5.897013



// Generation Options: --volume 10 --release 0.5

<group>
sw_default=48
sw_lokey=48
sw_hikey=51
sw_last=50
sw_label=Staccato
ampeg_attack=0.004000
ampeg_release=0.500000

<region>
lovel=0
hivel=83
sample=Saxello/Staccato/BrettSaxello_Stcts_MainSpirit_A#2_vl1_rr2.wav
pitch_keycenter=58
lokey=58
hikey=60
tune=3
volume=10.473090

<region>
lovel=84
hivel=127
sample=Saxello/Staccato/BrettSaxello_Stcts_MainSpirit_A#2_vl2_rr3.wav
pitch_keycenter=58
lokey=58
hikey=60
offset=10
volume=9.311843

<region>
lovel=0
hivel=83
sample=Saxello/Staccato/BrettSaxello_Stcts_MainSpirit_D3_vl1_rr5.wav
pitch_keycenter=62
lokey=61
hikey=64
tune=7
volume=11.314422

<region>
lovel=84
hivel=127
sample=Saxello/Staccato/BrettSaxello_Stcts_MainSpirit_D3_vl2_rr4.wav
pitch_keycenter=62
lokey=61
hikey=64
offset=101
volume=9.585427

<region>
lovel=0
hivel=83
sample=Saxello/Staccato/BrettSaxello_Stcts_MainSpirit_F#3_vl1_rr6.wav
pitch_keycenter=66
lokey=65
hikey=68
tune=2
volume=10.000982

<region>
lovel=84
hivel=127
sample=Saxello/Staccato/BrettSaxello_Stcts_MainSpirit_F#3_vl2_rr4.wav
pitch_keycenter=66
lokey=65
hikey=68
volume=8.066306

<region>
lovel=0
hivel=83
sample=Saxello/Staccato/BrettSaxello_Stcts_MainSpirit_A#3_vl1_rr1.wav
pitch_keycenter=70
lokey=69
hikey=72
tune=7
volume=14.373950

<region>
lovel=84
hivel=127
sample=Saxello/Staccato/BrettSaxello_Stcts_MainSpirit_A#3_vl2_rr2.wav
pitch_keycenter=70
lokey=69
hikey=72
tune=9
volume=9.241029

<region>
lovel=0
hivel=83
sample=Saxello/Staccato/BrettSaxello_Stcts_MainSpirit_D4_vl1_rr3.wav
pitch_keycenter=74
lokey=73
hikey=76
tune=2
volume=12.828063

<region>
lovel=84
hivel=127
sample=Saxello/Staccato/BrettSaxello_Stcts_MainSpirit_D4_vl2_rr5.wav
pitch_keycenter=74
lokey=73
hikey=76
volume=6.776469

<region>
lovel=0
hivel=83
sample=Saxello/Staccato/BrettSaxello_Stcts_MainSpirit_F#4_vl1_rr5.wav
pitch_keycenter=78
lokey=77
hikey=80
volume=20.820444

<region>
lovel=84
hivel=127
sample=Saxello/Staccato/BrettSaxello_Stcts_MainSpirit_F#4_vl2_rr4.wav
pitch_keycenter=78
lokey=77
hikey=80
volume=7.215493

<region>
lovel=0
hivel=83
sample=Saxello/Staccato/BrettSaxello_Stcts_MainSpirit_A#4_vl1_rr3.wav
pitch_keycenter=82
lokey=81
hikey=84
tune=1
volume=10.766055

<region>
lovel=84
hivel=127
sample=Saxello/Staccato/BrettSaxello_Stcts_MainSpirit_A#4_vl2_rr5.wav
pitch_keycenter=82
lokey=81
hikey=84
tune=5
volume=5.893575

<region>
sample=Saxello/Staccato/BrettSaxello_Stcts_MainSpirit_D5_vl1_rr6.wav
pitch_keycenter=86
lokey=85
hikey=87
tune=3
volume=11.441933



